<?xml version="1.0" encoding="UTF-8" standalone="no"?>
<!-- Created with Inkscape (http://www.inkscape.org/) -->

<svg
   width="501mm"
   height="210mm"
   viewBox="0 0 501 210"
   version="1.1"
   id="svg1"
   inkscape:version="1.4.3 (0d15f75, 2025-12-25)"
   sodipodi:docname="full-logo.svg"
   xmlns:inkscape="http://www.inkscape.org/namespaces/inkscape"
   xmlns:sodipodi="http://sodipodi.sourceforge.net/DTD/sodipodi-0.dtd"
   xmlns="http://www.w3.org/2000/svg"
   xmlns:svg="http://www.w3.org/2000/svg">
  <sodipodi:namedview
     id="namedview1"
     pagecolor="#505050"
     bordercolor="#eeeeee"
     borderopacity="1"
     inkscape:showpageshadow="0"
     inkscape:pageopacity="0"
     inkscape:pagecheckerboard="0"
     inkscape:deskcolor="#505050"
     inkscape:document-units="mm"
     inkscape:zoom="0.36875164"
     inkscape:cx="901.69091"
     inkscape:cy="677.96309"
     inkscape:window-width="1512"
     inkscape:window-height="921"
     inkscape:window-x="0"
     inkscape:window-y="61"
     inkscape:window-maximized="0"
     inkscape:current-layer="layer2" />
  <defs
     id="defs1">
    <inkscape:path-effect
       effect="fillet_chamfer"
       id="path-effect69"
       is_visible="true"
       lpeversion="1"
       nodesatellites_param="F,0,0,1,0,0,0,1 @ F,0,1,1,0,0,0,1 @ F,0,1,1,0,0,0,1 @ F,0,1,1,0,0,0,1"
       radius="0"
       unit="px"
       method="auto"
       mode="F"
       chamfer_steps="1"
       flexible="false"
       use_knot_distance="true"
       apply_no_radius="true"
       apply_with_radius="true"
       only_selected="false"
       hide_knots="false" />
    <inkscape:path-effect
       effect="fillet_chamfer"
       id="path-effect68"
       is_visible="true"
       lpeversion="1"
       nodesatellites_param="F,0,0,1,0,0,0,1 @ F,0,0,1,0,0.35062206,0,1 @ F,0,1,1,0,0.35062206,0,1 @ F,0,0,1,0,0,0,1"
       radius="0"
       unit="px"
       method="auto"
       mode="F"
       chamfer_steps="1"
       flexible="false"
       use_knot_distance="true"
       apply_no_radius="true"
       apply_with_radius="true"
       only_selected="false"
       hide_knots="false" />
    <inkscape:path-effect
       effect="fillet_chamfer"
       id="path-effect67"
       is_visible="true"
       lpeversion="1"
       nodesatellites_param="F,0,0,1,0,0.26945454,0,1 @ F,0,1,1,0,0.42197536,0,1 @ F,0,0,1,0,0.19267323,0,1 @ F,0,0,1,0,0.42197536,0,1"
       radius="0"
       unit="px"
       method="auto"
       mode="F"
       chamfer_steps="1"
       flexible="false"
       use_knot_distance="true"
       apply_no_radius="true"
       apply_with_radius="true"
       only_selected="false"
       hide_knots="false" />
    <inkscape:path-effect
       effect="fillet_chamfer"
       id="path-effect66"
       is_visible="true"
       lpeversion="1"
       nodesatellites_param="F,0,0,1,0,0,0,1 @ F,0,0,1,0,1.0288729,0,1 @ F,0,0,1,0,0.3145836,0,1 @ F,0,0,1,0,0,0,1"
       radius="0"
       unit="px"
       method="auto"
       mode="F"
       chamfer_steps="1"
       flexible="false"
       use_knot_distance="true"
       apply_no_radius="true"
       apply_with_radius="true"
       only_selected="false"
       hide_knots="false" />
    <inkscape:path-effect
       effect="fillet_chamfer"
       id="path-effect65"
       is_visible="true"
       lpeversion="1"
       nodesatellites_param="F,0,1,1,0,0,0,1 @ F,0,0,1,0,0,0,1 @ F,0,0,1,0,0,0,1 @ F,0,0,1,0,0,0,1"
       radius="0"
       unit="px"
       method="auto"
       mode="F"
       chamfer_steps="1"
       flexible="false"
       use_knot_distance="true"
       apply_no_radius="true"
       apply_with_radius="true"
       only_selected="false"
       hide_knots="false" />
    <inkscape:path-effect
       effect="fillet_chamfer"
       id="path-effect64"
       is_visible="true"
       lpeversion="1"
       nodesatellites_param="F,0,0,1,0,0,0,1 @ F,0,0,1,0,0,0,1 @ F,0,0,1,0,0,0,1 @ F,0,0,1,0,0,0,1"
       radius="0"
       unit="px"
       method="auto"
       mode="F"
       chamfer_steps="1"
       flexible="false"
       use_knot_distance="true"
       apply_no_radius="true"
       apply_with_radius="true"
       only_selected="false"
       hide_knots="false" />
    <inkscape:path-effect
       effect="fillet_chamfer"
       id="path-effect63"
       is_visible="true"
       lpeversion="1"
       nodesatellites_param="F,0,1,1,0,0,0,1 @ F,0,0,1,0,0,0,1 @ F,0,0,1,0,0,0,1 @ F,0,0,1,0,0,0,1"
       radius="0"
       unit="px"
       method="auto"
       mode="F"
       chamfer_steps="1"
       flexible="false"
       use_knot_distance="true"
       apply_no_radius="true"
       apply_with_radius="true"
       only_selected="false"
       hide_knots="false" />
  </defs>
  <g
     inkscape:label="icon"
     inkscape:groupmode="layer"
     id="layer1">
    <path
       id="rect22-2"
       style="display:inline;fill:#2a4066;fill-opacity:1;stroke:#ffb900;stroke-width:0.396103;stroke-linecap:square;stroke-linejoin:round;stroke-dasharray:none;stroke-dashoffset:1.903;stroke-opacity:1;paint-order:markers stroke fill"
       d="m 48.506999,102.50827 c 6.386412,-5.704082 6.099265,-11.44979 5.302953,-17.112314 l 17.049524,5.266198 c 0.709754,5.512538 0.784353,11.113866 -5.291878,17.102996 z"
       sodipodi:nodetypes="ccccc" />
    <path
       id="rect22-2-1"
       style="display:inline;fill:#2a4066;fill-opacity:1;stroke:#ffb900;stroke-width:0.396103;stroke-linecap:square;stroke-linejoin:round;stroke-dasharray:none;stroke-dashoffset:1.903;stroke-opacity:1;paint-order:markers stroke fill"
       d="m 65.574389,107.75586 c 5.907646,-5.85295 6.013797,-11.476379 5.302964,-17.112308 l 17.146232,5.347496 c 0.709766,5.512542 0.770461,11.074302 -5.305769,17.063412 z"
       sodipodi:nodetypes="ccccc" />
    <path
       id="rect22-2-1-3"
       style="display:inline;fill:#2a4066;fill-opacity:1;stroke:#ffb900;stroke-width:0.396103;stroke-linecap:square;stroke-linejoin:round;stroke-dasharray:none;stroke-dashoffset:1.903;stroke-opacity:1;paint-order:markers stroke fill"
       d="m 99.840103,118.30143 c 5.907657,-5.85295 6.002827,-11.44367 5.292007,-17.07963 l 16.87476,5.41961 c 0.70976,5.51254 0.73383,10.99558 -5.34243,16.98466 z"
       sodipodi:nodetypes="ccccc" />
    <path
       id="rect22-2-7"
       style="display:inline;fill:#2a4066;fill-opacity:1;stroke:#ffb900;stroke-width:0.396103;stroke-linecap:square;stroke-linejoin:round;stroke-dasharray:none;stroke-dashoffset:1.903;stroke-opacity:1;paint-order:markers stroke fill"
       d="m 31.44261,97.21726 c 6.386401,-5.704078 6.099255,-11.449779 5.302952,-17.112301 l 17.063425,5.305771 c 0.776309,5.56658 1.046852,11.298721 -5.305779,17.06341 z"
       sodipodi:nodetypes="ccccc" />
    <path
       id="rect22-2-2"
       style="display:inline;fill:#2a4066;fill-opacity:1;stroke:#ffb900;stroke-width:0.396103;stroke-linecap:square;stroke-linejoin:round;stroke-dasharray:none;stroke-dashoffset:1.903;stroke-opacity:1;paint-order:markers stroke fill"
       d="m 70.857585,90.684781 c -2.025742,-8.319806 1.46978,-12.95394 5.336672,-17.166451 L 59.130844,68.212546 c -3.710555,4.138083 -6.942396,8.79824 -5.333743,17.176928 z"
       sodipodi:nodetypes="ccccc" />
    <path
       id="rect22-2-3"
       style="display:inline;fill:#2a4066;fill-opacity:1;stroke:#ffb900;stroke-width:0.396103;stroke-linecap:square;stroke-linejoin:round;stroke-dasharray:none;stroke-dashoffset:1.903;stroke-opacity:1;paint-order:markers stroke fill"
       d="m 60.137064,125.0029 c -2.025753,-8.31976 1.533106,-13.01238 5.399989,-17.22491 l -17.044991,-5.30638 c -3.710566,4.13807 -6.997022,8.80819 -5.388392,17.18684 z"
       sodipodi:nodetypes="ccccc" />
    <path
       id="rect22-2-6"
       style="display:inline;fill:#2a4066;fill-opacity:1;stroke:#ffb900;stroke-width:0.396103;stroke-linecap:square;stroke-linejoin:round;stroke-dasharray:none;stroke-dashoffset:1.903;stroke-opacity:1;paint-order:markers stroke fill"
       d="m 76.19885,73.497173 c 6.386408,-5.704099 6.099263,-11.4498 5.30295,-17.112328 l 17.063389,5.305777 c 0.709747,5.512534 0.770457,11.074316 -5.305739,17.063426 z"
       sodipodi:nodetypes="ccccc" />
    <path
       id="rect22-2-1-6"
       style="display:inline;fill:#2a4066;fill-opacity:1;stroke:#ffb900;stroke-width:0.396103;stroke-linecap:square;stroke-linejoin:round;stroke-dasharray:none;stroke-dashoffset:1.903;stroke-opacity:1;paint-order:markers stroke fill"
       d="m 93.266248,78.74476 c 5.907598,-5.852964 6.013768,-11.476369 5.302931,-17.11232 l 17.146241,5.347491 c 0.70975,5.512545 0.77046,11.074314 -5.30578,17.063425 z"
       sodipodi:nodetypes="ccccc" />
    <path
       id="rect22-2-7-4"
       style="display:inline;fill:#2a4066;fill-opacity:1;stroke:#ffb900;stroke-width:0.396103;stroke-linecap:square;stroke-linejoin:round;stroke-dasharray:none;stroke-dashoffset:1.903;stroke-opacity:1;paint-order:markers stroke fill"
       d="m 59.134471,68.206173 c 6.386411,-5.704089 6.099255,-11.449795 5.302952,-17.112317 l 17.063418,5.305778 c 0.776315,5.566572 1.042615,11.332281 -5.310015,17.096982 z"
       sodipodi:nodetypes="ccccc" />
    <path
       id="rect22-2-2-08"
       style="display:inline;fill:#2a4066;fill-opacity:1;stroke:#ffb900;stroke-width:0.396103;stroke-linecap:square;stroke-linejoin:round;stroke-dasharray:none;stroke-dashoffset:1.903;stroke-opacity:1;paint-order:markers stroke fill"
       d="M 98.556289,61.652074 C 96.530551,53.332261 100.0192,48.719745 103.88608,44.50722 L 86.828736,39.24419 c -3.710546,4.138082 -6.947497,8.810645 -5.338846,17.189333 z"
       sodipodi:nodetypes="ccccc" />
    <path
       id="rect22-2-2-08-0"
       style="display:inline;fill:#2a4066;fill-opacity:1;stroke:#ffb900;stroke-width:0.396103;stroke-linecap:square;stroke-linejoin:round;stroke-dasharray:none;stroke-dashoffset:1.903;stroke-opacity:1;paint-order:markers stroke fill"
       d="m 115.70093,66.881376 c -2.02576,-8.319819 1.40606,-13.083909 5.27295,-17.296434 l -17.20896,-5.1304 c -3.71055,4.138081 -6.795902,8.678021 -5.187251,17.056702 z"
       sodipodi:nodetypes="ccccc" />
    <path
       id="rect22-2-3-2"
       style="display:inline;fill:#2a4066;fill-opacity:1;stroke:#ffb900;stroke-width:0.396103;stroke-linecap:square;stroke-linejoin:round;stroke-dasharray:none;stroke-dashoffset:1.903;stroke-opacity:1;paint-order:markers stroke fill"
       d="M 87.974945,95.919122 C 85.949191,87.599327 89.382874,82.969024 93.249758,78.756487 L 76.166919,73.500421 c -3.805199,4.155647 -7.262471,8.83468 -5.331104,17.1534 z"
       sodipodi:nodetypes="ccccc" />
    <path
       id="rect22-2-6-1"
       style="display:inline;fill:#2a4066;fill-opacity:1;stroke:#ffb900;stroke-width:0.396103;stroke-linecap:square;stroke-linejoin:round;stroke-dasharray:none;stroke-dashoffset:1.903;stroke-opacity:1;paint-order:markers stroke fill"
       d="m 82.712873,113.05331 c 5.597961,-5.63899 5.848288,-11.38244 5.293262,-17.094388 L 105.13881,101.22 c 0.70977,5.51254 0.77048,11.07431 -5.305757,17.06341 z"
       sodipodi:nodetypes="ccccc" />
    <path
       id="rect22-2-4"
       style="display:inline;fill:#2a4066;fill-opacity:1;stroke:#ffb900;stroke-width:0.396103;stroke-linecap:square;stroke-linejoin:round;stroke-dasharray:none;stroke-dashoffset:1.903;stroke-opacity:1;paint-order:markers stroke fill"
       d="m 20.926498,131.44775 c 6.386401,-5.7041 6.099255,-11.44981 5.302944,-17.11229 l 17.063423,5.30575 c 0.709764,5.51253 0.770463,11.0743 -5.305778,17.06342 z"
       sodipodi:nodetypes="ccccc" />
    <path
       id="rect22-2-1-5"
       style="display:inline;fill:#2a4066;fill-opacity:1;stroke:#ffb900;stroke-width:0.396103;stroke-linecap:square;stroke-linejoin:round;stroke-dasharray:none;stroke-dashoffset:1.903;stroke-opacity:1;paint-order:markers stroke fill"
       d="m 37.993898,136.69534 c 5.907635,-5.85296 6.013775,-11.47638 5.302933,-17.11233 l 16.851924,5.44941 c 0.709765,5.51252 1.06478,10.97241 -5.011452,16.96151 z"
       sodipodi:nodetypes="ccccc" />
    <path
       id="rect22-2-7-3"
       style="display:inline;fill:#2a4066;fill-opacity:1;stroke:#ffb900;stroke-width:0.396103;stroke-linecap:square;stroke-linejoin:round;stroke-dasharray:none;stroke-dashoffset:1.903;stroke-opacity:1;paint-order:markers stroke fill"
       d="m 3.8621016,126.15675 c 6.3864074,-5.70411 6.0992727,-11.44977 5.302951,-17.11229 l 17.0634324,5.30578 c 0.776299,5.56654 1.046853,11.29869 -5.305768,17.06337 z"
       sodipodi:nodetypes="ccccc" />
    <path
       id="rect22-2-1-5-6"
       style="display:inline;fill:#2a4066;fill-opacity:1;stroke:#ffb900;stroke-width:0.396103;stroke-linecap:square;stroke-linejoin:round;stroke-dasharray:none;stroke-dashoffset:1.903;stroke-opacity:1;paint-order:markers stroke fill"
       d="m 77.223129,130.06769 c -1.546421,-8.17106 1.651951,-12.74973 5.433669,-16.98855 l -17.08283,-5.33522 c -3.926081,4.18527 -7.410743,8.90914 -5.444425,17.20889 z"
       sodipodi:nodetypes="ccccc" />
    <path
       id="rect22-2-7-3-8"
       style="display:inline;fill:#2a4066;fill-opacity:1;stroke:#ffb900;stroke-width:0.396103;stroke-linecap:square;stroke-linejoin:round;stroke-dasharray:none;stroke-dashoffset:1.903;stroke-opacity:1;paint-order:markers stroke fill"
       d="m 111.31187,140.74453 c -2.02517,-8.31998 1.46982,-12.88948 5.33702,-17.10175 L 99.747373,118.2554 c -3.796269,4.14456 -7.431445,8.79276 -5.46845,17.14346 z"
       sodipodi:nodetypes="ccccc" />
    <path
       id="rect22-2-2-0"
       style="display:inline;fill:#2a4066;fill-opacity:1;stroke:#ffb900;stroke-width:0.396103;stroke-linecap:square;stroke-linejoin:round;stroke-dasharray:none;stroke-dashoffset:1.903;stroke-opacity:1;paint-order:markers stroke fill"
       d="m 43.277926,119.5599 c -2.025752,-8.31977 1.468927,-12.88954 5.33583,-17.10206 L 31.550343,97.152058 c -3.710565,4.138082 -6.91442,8.684742 -5.305779,17.063422 z"
       sodipodi:nodetypes="ccccc" />
    <path
       id="rect22-2-3-6"
       style="display:inline;fill:#2a4066;fill-opacity:1;stroke:#ffb900;stroke-width:0.396103;stroke-linecap:square;stroke-linejoin:round;stroke-dasharray:none;stroke-dashoffset:1.903;stroke-opacity:1;paint-order:markers stroke fill"
       d="m 121.96925,106.63729 c -2.02574,-8.319827 1.5331,-13.012438 5.4,-17.224965 l -17.04501,-5.306384 c -3.75105,4.148128 -7.0906,8.788581 -5.21679,17.101449 z"
       sodipodi:nodetypes="ccccc" />
    <path
       id="rect22-2-1-5-6-6"
       style="display:inline;fill:#2a4066;fill-opacity:1;stroke:#ffb900;stroke-width:0.396103;stroke-linecap:square;stroke-linejoin:round;stroke-dasharray:none;stroke-dashoffset:1.903;stroke-opacity:1;paint-order:markers stroke fill"
       d="m 139.05536,111.70206 c -1.54643,-8.17106 1.65195,-12.749765 5.43368,-16.988581 l -17.08287,-5.335225 c -3.92611,4.185266 -7.41076,8.909148 -5.44444,17.208926 z"
       sodipodi:nodetypes="ccccc" />
    <path
       id="rect22-2-2-0-6"
       style="display:inline;fill:#2a4066;fill-opacity:1;stroke:#ffb900;stroke-width:0.396103;stroke-linecap:square;stroke-linejoin:round;stroke-dasharray:none;stroke-dashoffset:1.903;stroke-opacity:1;paint-order:markers stroke fill"
       d="m 105.11012,101.19427 c -2.02576,-8.319788 1.46891,-12.889554 5.3358,-17.102084 L 93.276707,78.750927 C 89.501304,82.892233 85.963448,87.577 87.980832,95.935391 Z"
       sodipodi:nodetypes="ccccc" />
    <path
       id="rect22-2-3-1"
       style="display:inline;fill:#2a4066;fill-opacity:1;stroke:#ffb900;stroke-width:0.396103;stroke-linecap:square;stroke-linejoin:round;stroke-dasharray:none;stroke-dashoffset:1.903;stroke-opacity:1;paint-order:markers stroke fill"
       d="m 32.556562,153.94241 c -2.025753,-8.31981 1.533107,-13.01243 5.39999,-17.22496 l -17.044993,-5.30638 c -3.710554,4.13807 -6.997032,8.80821 -5.38839,17.18688 z"
       sodipodi:nodetypes="ccccc" />
    <path
       style="display:inline;fill:#3a5a8a;stroke:#0d1419;stroke-width:0.179299;stroke-linejoin:miter;stroke-miterlimit:2.8;stroke-dasharray:none;stroke-opacity:1"
       d="M 27.877904,79.159362 44.842472,89.689164 45.274234,31.85281 28.040478,37.780738 Z"
       id="path1"
       sodipodi:nodetypes="ccccc" />
    <path
       style="display:inline;fill:#5a7fb5;stroke:#0d1419;stroke-width:0.246944;stroke-linejoin:miter;stroke-miterlimit:2.8;stroke-dasharray:none;stroke-opacity:1"
       d="m 60.967976,35.62156 0.142529,94.03909 37.514646,-15.61422 -0.810042,-90.149164 z"
       id="path3"
       inkscape:path-effect="#path-effect69"
       inkscape:original-d="m 60.967976,35.62156 0.142529,94.03909 37.514646,-15.61422 -0.810042,-90.149164 z"
       sodipodi:nodetypes="ccccc"
       transform="matrix(0.76752355,0,0,0.76752355,1.6904688,3.6630151)" />
    <path
       style="display:inline;fill:#7a9fd5;stroke:#0d1419;stroke-width:0.246944;stroke-linejoin:miter;stroke-miterlimit:2.8;stroke-dasharray:none;stroke-opacity:1"
       d="m 98.0465,23.896012 30.35103,6.476783 a 0.4332931,0.4332931 51.025887 0 1 0.34286,0.423796 l -0.007,68.758775 a 0.55214469,0.55214469 122.42207 0 1 -0.31739,0.499694 l -29.689734,13.94665 z"
       id="path4"
       sodipodi:nodetypes="ccccc"
       inkscape:path-effect="#path-effect68"
       inkscape:original-d="m 98.0465,23.896012 30.69393,6.549957 -0.007,69.460019 -30.007084,14.095722 z"
       transform="matrix(0.76752355,0,0,0.76752355,1.6904688,3.6630151)" />
    <path
       style="display:inline;fill:#3a5a8a;stroke:#0d1419;stroke-width:0.399526;stroke-linejoin:miter;stroke-miterlimit:2.8;stroke-dasharray:none;stroke-opacity:1"
       d="m 16.028409,139.38032 0.03201,137.03467 a 0.62937428,0.62937428 56.146026 0 0 0.3905,0.58214 l 38.172379,15.65986 a 0.12900033,0.12900033 146.10889 0 0 0.177961,-0.11954 L 54.602725,162.75646 a 0.74793948,0.74793948 60.481363 0 0 -0.362158,-0.63962 L 16.259192,139.24985 a 0.15225219,0.15225219 150.5185 0 0 -0.230783,0.13047 z"
       id="path5"
       sodipodi:nodetypes="ccccc"
       inkscape:path-effect="#path-effect67"
       inkscape:original-d="m 16.028346,139.11087 0.03217,137.7261 38.741036,15.89315 -0.199473,-130.39563 z"
       transform="matrix(0.42563869,0,0,0.47354617,21.18985,35.6588)" />
    <path
       style="display:inline;fill:#5a7fb5;stroke:#0d1419;stroke-width:0.246944;stroke-linejoin:miter;stroke-miterlimit:2.8;stroke-dasharray:none;stroke-opacity:1"
       d="m 63.24708,208.92259 -0.2753,51.08448 a 1.4424064,1.4424064 54.808392 0 0 0.965459,1.36905 l 41.732171,14.62095 a 0.22441845,0.22441845 144.81141 0 0 0.29862,-0.21056 l 0.29262,-53.25728 z"
       id="path6"
       sodipodi:nodetypes="ccccc"
       inkscape:path-effect="#path-effect66"
       inkscape:original-d="m 63.24708,208.92259 -0.280845,52.11334 43.000065,15.06516 0.29435,-53.57186 z"
       transform="matrix(0.76752355,0,0,0.76752355,-2.2279685,-32.808619)" />
    <path
       style="display:inline;fill:#7a9fd5;stroke:#0d1419;stroke-width:0.246944;stroke-linejoin:miter;stroke-miterlimit:2.8;stroke-dasharray:none;stroke-opacity:1"
       d="m 112.51927,219.84538 28.13791,-15.05528 0.17243,59.9794 -28.30819,9.03613 z"
       id="path7"
       sodipodi:nodetypes="ccccc"
       inkscape:path-effect="#path-effect65"
       inkscape:original-d="m 112.51927,219.84538 28.13791,-15.05528 0.17243,59.9794 -28.30819,9.03613 z"
       transform="matrix(0.7675466,0,0,0.76219107,-7.1777856,-29.65124)" />
    <path
       style="display:inline;fill:#3a5a8a;fill-opacity:1;stroke:#0d1419;stroke-width:0.246944;stroke-linejoin:miter;stroke-miterlimit:2.8;stroke-dasharray:none;stroke-opacity:1"
       d="m 148.46566,177.33266 0.85642,85.15328 20.55171,-12.86883 0.31495,-72.10786 z"
       id="path8"
       sodipodi:nodetypes="ccccc"
       inkscape:path-effect="#path-effect64"
       inkscape:original-d="m 148.46566,177.33266 0.85642,85.15328 20.55171,-12.86883 0.31495,-72.10786 z"
       transform="matrix(0.76752355,0,0,0.76752355,-11.629379,-53.810013)" />
    <path
       style="display:inline;fill:#5a7fb5;stroke:#0d1419;stroke-width:0.251725;stroke-linejoin:miter;stroke-miterlimit:2.8;stroke-dasharray:none;stroke-opacity:1"
       d="m 149.1427,179.32553 27.20486,-16.56262 -2.00876,-57.73108 -28.81786,15.65222 z"
       id="path9"
       sodipodi:nodetypes="ccccc"
       inkscape:path-effect="#path-effect63"
       inkscape:original-d="m 149.1427,179.32553 27.20486,-16.56262 -2.00876,-57.73108 -28.81786,15.65222 z"
       transform="matrix(0.77911947,0.02231065,-0.02391111,0.72697008,-32.789698,1.9010601)" />
  </g>
  <g
     inkscape:groupmode="layer"
     id="layer2"
     inkscape:label="name">
    <text
       xml:space="preserve"
       style="font-size:116.481px;writing-mode:lr-tb;direction:ltr;fill:#000000;fill-opacity:0.80092591;stroke-width:1.82;stroke-dasharray:none"
       x="152.80194"
       y="138.57231"
       id="kintsu-branding"
       inkscape:label="kintsu-branding"><tspan
         sodipodi:role="line"
         id="kintsu-branding-text"
         style="font-style:normal;font-variant:normal;font-weight:bold;font-stretch:normal;font-size:116.481px;font-family:Inter;-inkscape-font-specification:'Inter Bold';fill:#000000;fill-opacity:0.80092591;stroke-width:1.82;stroke-dasharray:none"
         x="152.80194"
         y="138.57231">kintsu</tspan></text>
  </g>
</svg>
